<svg width="41" height="40" viewBox="0 0 41 40" fill="none" xmlns="http://www.w3.org/2000/svg">
<g clip-path="url(#clip0_27_664)">
<path d="M34.4026 33.8218H28.5504V24.8766C28.5504 22.7436 28.5119 19.9977 25.5081 19.9977C22.4597 19.9977 21.9937 22.3218 21.9937 24.7214V33.8212H16.1425V15.4263H21.7592V17.9402H21.8384C22.4008 17.002 23.2129 16.2301 24.1884 15.7069C25.165 15.1836 26.2674 14.9285 27.381 14.9688C33.3114 14.9688 34.4047 18.7768 34.4047 23.7307L34.4026 33.8218ZM9.54009 12.9119C8.86808 12.9121 8.21232 12.7178 7.654 12.3536C7.09466 11.9896 6.66018 11.4719 6.40234 10.8663C6.14551 10.2606 6.07851 9.59415 6.20946 8.95115C6.34042 8.30815 6.66322 7.71747 7.1383 7.25382C7.61237 6.79018 8.21739 6.47437 8.87621 6.34635C9.53503 6.21832 10.2182 6.28392 10.8385 6.53462C11.4587 6.78542 11.9896 7.21022 12.3622 7.75522C12.7357 8.30022 12.9347 8.94105 12.9347 9.59663C12.9357 10.0319 12.8474 10.463 12.6769 10.8652C12.5063 11.2674 12.2566 11.6329 11.9409 11.9407C11.6262 12.2485 11.2516 12.4928 10.8395 12.6594C10.4273 12.8261 9.98574 12.9119 9.54009 12.9119ZM12.4657 33.8218H6.6084V15.4263H12.4657V33.8218ZM37.3191 0.978219H3.66859C2.9042 0.969806 2.16824 1.25774 1.6221 1.77875C1.07596 2.29977 0.763287 3.01125 0.75415 3.75681V36.7426C0.763287 37.4885 1.07494 38.2005 1.62107 38.722C2.16823 39.2435 2.9042 39.5321 3.66859 39.5242H37.3191C38.0855 39.5335 38.8235 39.2458 39.3717 38.7243C39.9199 38.2028 40.2346 37.49 40.2447 36.7426V3.75443C40.2346 3.00738 39.9199 2.29511 39.3717 1.77411C38.8225 1.2531 38.0845 0.965982 37.3191 0.975831" fill="white"/>
</g>
<defs>
<clipPath id="clip0_27_664">
<rect width="39.4906" height="38.5488" fill="white" transform="translate(0.75415 0.975586)"/>
</clipPath>
</defs>
</svg>
